<svg width="20" height="20" viewBox="0 0 20 20" fill="none" xmlns="http://www.w3.org/2000/svg">
<rect width="20" height="20" fill="white"/>
<path fill-rule="evenodd" clip-rule="evenodd" d="M6 7.5C6 5.29086 7.79086 3.5 10 3.5C12.2091 3.5 14 5.29086 14 7.5C14 9.70914 12.2091 11.5 10 11.5C7.79086 11.5 6 9.70914 6 7.5ZM10 1.5C6.68629 1.5 4 4.18629 4 7.5C4 9.41881 4.90072 11.1272 6.30241 12.2256C3.90893 13.2073 1.99245 15.1135 0.997238 17.5H3.21604C4.53735 15.1148 7.0801 13.5 9.99999 13.5C12.9199 13.5 15.4626 15.1148 16.7839 17.5H19.0027C18.0075 15.1135 16.0911 13.2073 13.6976 12.2256C15.0993 11.1273 16 9.41881 16 7.5C16 4.18629 13.3137 1.5 10 1.5Z" fill="black"/>
</svg>
