<svg width="20" height="20" viewBox="0 0 20 20" fill="none" xmlns="http://www.w3.org/2000/svg">
<path d="M11.7323 1.39353C11.2081 1.14132 10.6206 1 10 1C7.79086 1 6 2.79086 6 5V6H3L1 18H19L17.4637 8.78234C17.0008 8.92386 16.5093 9 16 9C15.8202 9 15.6426 8.99051 15.4677 8.972L16.6391 16H3.36092L4.69425 8H12.9995C12.3132 7.48438 11.7639 6.79625 11.416 6H8V5C8 3.89543 8.89543 3 10 3C10.3847 3 10.7441 3.10863 11.0491 3.29688C11.1461 2.60728 11.3838 1.96285 11.7323 1.39353Z" fill="black"/>
<circle cx="16" cy="4" r="3" fill="black"/>
</svg>
