<svg width="20" height="20" viewBox="0 0 20 20" fill="none" xmlns="http://www.w3.org/2000/svg">
<path d="M11.6929 15.3034L12.4896 15.9078C12.5115 15.8789 12.5318 15.8489 12.5504 15.8179L11.6929 15.3034ZM10 17.5352L9.20329 18.1395L10 19.1898L10.7967 18.1395L10 17.5352ZM8.30706 15.3034L7.44957 15.8179C7.46819 15.8489 7.48848 15.8789 7.51035 15.9078L8.30706 15.3034ZM7.77113 15V16H7.77113L7.77113 15ZM2.5 14.375H1.5H2.5ZM2.5 4.375H1.5H2.5ZM3.125 3.75V4.75V3.75ZM16.875 15L16.875 16H16.875V15ZM12.2289 15L12.2289 16H12.2289L12.2289 15ZM10.8962 14.699L9.20329 16.9308L10.7967 18.1395L12.4896 15.9078L10.8962 14.699ZM10.7967 16.9308L9.10378 14.699L7.51035 15.9078L9.20329 18.1395L10.7967 16.9308ZM9.16455 14.7889C9.02018 14.5483 8.81595 14.3491 8.57176 14.2109L7.58637 15.9513C7.53002 15.9194 7.48289 15.8734 7.44957 15.8179L9.16455 14.7889ZM8.57176 14.2109C8.32757 14.0726 8.05173 14 7.77113 14L7.77113 16C7.70639 16 7.64273 15.9832 7.58637 15.9513L8.57176 14.2109ZM7.77113 14H3.125V16H7.77113V14ZM3.125 14C3.22446 14 3.31984 14.0395 3.39016 14.1098L1.97595 15.524C2.28069 15.8288 2.69402 16 3.125 16V14ZM3.39016 14.1098C3.46049 14.1801 3.5 14.2755 3.5 14.375H1.5C1.5 14.8059 1.67121 15.2193 1.97595 15.524L3.39016 14.1098ZM3.5 14.375V4.375H1.5V14.375H3.5ZM3.5 4.375C3.5 4.47446 3.46049 4.56984 3.39016 4.64017L1.97595 3.22595C1.6712 3.5307 1.5 3.94402 1.5 4.375H3.5ZM3.39016 4.64017C3.31984 4.71049 3.22446 4.75 3.125 4.75V2.75C2.69402 2.75 2.2807 2.92121 1.97595 3.22595L3.39016 4.64017ZM3.125 4.75H16.875V2.75H3.125V4.75ZM16.875 4.75C16.7755 4.75 16.6802 4.71049 16.6098 4.64017L18.024 3.22595C17.7193 2.92121 17.306 2.75 16.875 2.75V4.75ZM16.6098 4.64017C16.5395 4.56984 16.5 4.47446 16.5 4.375H18.5C18.5 3.94402 18.3288 3.5307 18.024 3.22595L16.6098 4.64017ZM16.5 4.375V14.375H18.5V4.375H16.5ZM16.5 14.375C16.5 14.2755 16.5395 14.1802 16.6098 14.1098L18.024 15.524C18.3288 15.2193 18.5 14.806 18.5 14.375H16.5ZM16.6098 14.1098C16.6802 14.0395 16.7755 14 16.875 14V16C17.306 16 17.7193 15.8288 18.024 15.524L16.6098 14.1098ZM16.875 14L12.2289 14L12.2289 16L16.875 16L16.875 14ZM12.2289 14C11.9483 14 11.6724 14.0726 11.4282 14.2109L12.4136 15.9513C12.3573 15.9832 12.2936 16 12.2289 16L12.2289 14ZM11.4282 14.2109C11.1841 14.3491 10.9798 14.5483 10.8354 14.7889L12.5504 15.8179C12.5171 15.8734 12.47 15.9194 12.4136 15.9513L11.4282 14.2109Z" fill="black"/>
</svg>
