<svg width="20" height="20" viewBox="0 0 20 20" fill="none" xmlns="http://www.w3.org/2000/svg">
<mask id="path-1-inside-1_314:93" fill="white">
<path fill-rule="evenodd" clip-rule="evenodd" d="M16.4153 3L18.8191 5.40381L8.01099 16.2119L5.60718 13.8081L5.61196 13.8033L1.99999 10.1913L4.4038 7.78754L8.01577 11.3995L16.4153 3Z"/>
</mask>
<path fill-rule="evenodd" clip-rule="evenodd" d="M16.4153 3L18.8191 5.40381L8.01099 16.2119L5.60718 13.8081L5.61196 13.8033L1.99999 10.1913L4.4038 7.78754L8.01577 11.3995L16.4153 3Z" fill="black"/>
<path d="M18.8191 5.40381L19.5262 6.11092L20.2333 5.40381L19.5262 4.6967L18.8191 5.40381ZM16.4153 3L17.1224 2.29289L16.4153 1.58579L15.7082 2.29289L16.4153 3ZM8.01099 16.2119L7.30388 16.919L8.01099 17.6261L8.7181 16.919L8.01099 16.2119ZM5.60718 13.8081L4.90006 13.101L4.19298 13.8081L4.90007 14.5152L5.60718 13.8081ZM5.61196 13.8033L6.31909 14.5104L7.02616 13.8033L6.31907 13.0962L5.61196 13.8033ZM1.99999 10.1913L1.29288 9.48424L0.585776 10.1913L1.29288 10.8985L1.99999 10.1913ZM4.4038 7.78754L5.11091 7.08043L4.4038 6.37332L3.69669 7.08043L4.4038 7.78754ZM8.01577 11.3995L7.30867 12.1066L8.01577 12.8137L8.72288 12.1066L8.01577 11.3995ZM19.5262 4.6967L17.1224 2.29289L15.7082 3.70711L18.112 6.11092L19.5262 4.6967ZM8.7181 16.919L19.5262 6.11092L18.112 4.6967L7.30388 15.5048L8.7181 16.919ZM4.90007 14.5152L7.30388 16.919L8.7181 15.5048L6.31429 13.101L4.90007 14.5152ZM4.90484 13.0962L4.90006 13.101L6.31431 14.5152L6.31909 14.5104L4.90484 13.0962ZM1.29288 10.8985L4.90486 14.5104L6.31907 13.0962L2.7071 9.48424L1.29288 10.8985ZM3.69669 7.08043L1.29288 9.48424L2.7071 10.8985L5.11091 8.49464L3.69669 7.08043ZM8.72288 10.6924L5.11091 7.08043L3.69669 8.49464L7.30867 12.1066L8.72288 10.6924ZM15.7082 2.29289L7.30867 10.6924L8.72288 12.1066L17.1224 3.70711L15.7082 2.29289Z" fill="black" mask="url(#path-1-inside-1_314:93)"/>
</svg>
