<svg width="20" height="20" viewBox="0 0 20 20" fill="none" xmlns="http://www.w3.org/2000/svg">
<path fill-rule="evenodd" clip-rule="evenodd" d="M0 10C1.57273 5.90267 5.45455 3 10 3C14.5455 3 18.4273 5.90267 20 10C18.4273 14.0973 14.5455 17 10 17C5.45455 17 1.57273 14.0973 0 10ZM5.45455 10C5.45455 12.576 7.49091 14.6667 10 14.6667C12.5091 14.6667 14.5455 12.576 14.5455 10C14.5455 7.424 12.5091 5.33333 10 5.33333C7.49091 5.33333 5.45455 7.424 5.45455 10ZM7.27273 10C7.27273 8.45067 8.49091 7.2 10 7.2C10.4138 7.2 10.8057 7.29403 11.1566 7.46246C11.0575 7.6177 11 7.80214 11 8C11 8.55228 11.4477 9 12 9C12.1806 9 12.3501 8.95211 12.4963 8.86834C12.6448 9.21418 12.7273 9.59698 12.7273 10C12.7273 11.5493 11.5091 12.8 10 12.8C8.49091 12.8 7.27273 11.5493 7.27273 10Z" fill="black"/>
</svg>
