<svg width="20" height="20" viewBox="0 0 20 20" fill="none" xmlns="http://www.w3.org/2000/svg">
<path d="M10.0045 5.57895C12.5148 5.57895 14.5521 7.58316 14.5521 10.0526C14.5521 10.6342 14.4338 11.18 14.2246 11.69L16.8804 14.3026C18.2538 13.1753 19.3361 11.7168 20 10.0526C18.4266 6.12474 14.543 3.34211 9.99545 3.34211C8.72215 3.34211 7.50341 3.56579 6.37563 3.96842L8.34015 5.90105C8.85857 5.69526 9.41337 5.57895 10.0045 5.57895ZM0.909504 3.13632L2.98317 5.17632L3.40155 5.58789C1.89177 6.74211 0.709413 8.28105 0 10.0526C1.57344 13.9805 5.45703 16.7632 10.0045 16.7632C11.4143 16.7632 12.7603 16.4947 13.9882 16.0116L14.3702 16.3874L17.035 19L18.1901 17.8637L2.06457 2L0.909504 3.13632ZM5.93906 8.08421L7.34879 9.47105C7.30332 9.65895 7.27603 9.85579 7.27603 10.0526C7.27603 11.5379 8.49477 12.7368 10.0045 12.7368C10.2046 12.7368 10.4047 12.71 10.5957 12.6653L12.0055 14.0521C11.3961 14.3474 10.7231 14.5263 10.0045 14.5263C7.49432 14.5263 5.45703 12.5221 5.45703 10.0526C5.45703 9.34579 5.63893 8.68368 5.93906 8.08421ZM9.85903 7.38632L12.724 10.2047L12.7422 10.0616C12.7422 8.57632 11.5234 7.37737 10.0136 7.37737L9.85903 7.38632Z" fill="black"/>
</svg>
