<svg width="20" height="20" viewBox="0 0 20 20" fill="none" xmlns="http://www.w3.org/2000/svg">
<path d="M10.4283 16.0001L16.8885 9.97784C18.411 8.45527 18.3293 5.91998 16.8885 4.31988C16.5276 3.91792 16.0885 3.59371 15.5982 3.36703C15.1078 3.14035 14.5764 3.01596 14.0364 3.00144C13.4964 2.98692 12.9591 3.08257 12.4573 3.28257C11.9554 3.48257 11.4996 3.78271 11.1176 4.16469L9.95294 5.32937L8.94736 4.32379C7.4248 2.80122 4.91994 2.57659 3.31984 4.01745C2.91789 4.37836 2.59368 4.81739 2.367 5.30774C2.14032 5.79809 2.01593 6.32949 2.00141 6.8695C1.98688 7.40952 2.08254 7.94683 2.28254 8.44865C2.48253 8.95048 2.93787 9.59584 3.31984 9.97784L9.44314 16.0001L9.95294 16.4589L10.4283 16.0001Z" stroke="black" stroke-width="1.81818" stroke-linecap="round"/>
</svg>
