<svg width="20" height="20" viewBox="0 0 20 20" fill="none" xmlns="http://www.w3.org/2000/svg">
<circle cx="10" cy="10" r="7.5" stroke="black"/>
<path d="M9.561 11.26V11.66H10.551V11.4C10.551 11 10.621 10.83 10.911 10.55L11.491 10C12.121 9.4 12.431 8.91 12.431 8.11C12.431 6.95 11.631 6 10.211 6C8.611 6 7.971 7.21 8.001 8.26H9.021C9.021 7.64 9.361 6.95 10.211 6.95C10.951 6.95 11.401 7.46 11.401 8.11C11.401 8.61 11.201 8.95 10.811 9.33L10.241 9.88C9.681 10.42 9.561 10.68 9.561 11.26ZM10.601 12.46H9.511V13.62H10.601V12.46Z" fill="black"/>
</svg>
