<svg width="20" height="20" viewBox="0 0 20 20" fill="none" xmlns="http://www.w3.org/2000/svg">
<path fill-rule="evenodd" clip-rule="evenodd" d="M14.5 7.33333H13.75V5.80952C13.75 3.70667 12.07 2 10 2C7.93 2 6.25 3.70667 6.25 5.80952V7.33333H5.5C4.675 7.33333 4 8.01905 4 8.85714V16.4762C4 17.3143 4.675 18 5.5 18H14.5C15.325 18 16 17.3143 16 16.4762V8.85714C16 8.01905 15.325 7.33333 14.5 7.33333ZM10 14.1905C9.175 14.1905 8.5 13.5048 8.5 12.6667C8.5 11.8286 9.175 11.1429 10 11.1429C10.825 11.1429 11.5 11.8286 11.5 12.6667C11.5 13.5048 10.825 14.1905 10 14.1905ZM7.67499 5.80951V7.33332H12.325V5.80951C12.325 4.50665 11.2825 3.44761 9.99999 3.44761C8.71749 3.44761 7.67499 4.50665 7.67499 5.80951Z" fill="black"/>
</svg>
