<svg width="20" height="20" viewBox="0 0 20 20" fill="none" xmlns="http://www.w3.org/2000/svg">
<path d="M10 10C11.1046 10 12 9.10457 12 8C12 6.89543 11.1046 6 10 6C8.89543 6 8 6.89543 8 8C8 9.10457 8.89543 10 10 10Z" fill="black"/>
<path fill-rule="evenodd" clip-rule="evenodd" d="M10 19L14.3466 14.6534C16.0455 12.9545 17 10.6502 17 8.24749V8C17 4.13401 13.866 1 10 1C6.13401 1 3 4.13401 3 8V8.24749C3 10.6502 3.95446 12.9545 5.65342 14.6534L10 19ZM12.9324 13.2392L10 16.1716L7.06764 13.2392C5.74375 11.9153 5 10.1197 5 8.24749V8C5 5.23858 7.23858 3 10 3C12.7614 3 15 5.23858 15 8V8.24749C15 10.1197 14.2562 11.9153 12.9324 13.2392Z" fill="black"/>
</svg>
