<svg width="18" height="18" viewBox="0 0 18 18" fill="none" xmlns="http://www.w3.org/2000/svg">
<path fill-rule="evenodd" clip-rule="evenodd" d="M5.28962 0.0540043C6.24987 0.0104633 6.55633 0 9.00066 0C11.445 0 11.7514 0.0104633 12.7114 0.0540043C13.6696 0.0978827 14.3237 0.250107 14.8965 0.4722C15.4881 0.702393 15.99 1.01022 16.4906 1.51043C16.9911 2.01065 17.2989 2.51255 17.5288 3.10457C17.7512 3.67702 17.9034 4.33148 17.947 5.28938C17.9905 6.24965 18.001 6.55612 18.001 9.00049C18.001 11.4452 17.9908 11.7517 17.947 12.7116C17.9034 13.6695 17.7512 14.324 17.5288 14.8964C17.2986 15.4881 16.9908 15.99 16.4906 16.4905C15.9904 16.9911 15.4885 17.2989 14.8965 17.5288C14.324 17.7512 13.6696 17.9034 12.7117 17.947C11.7514 17.9905 11.445 18.001 9.00066 18.001C6.556 18.001 6.24953 17.9908 5.28962 17.947C4.33174 17.9034 3.67728 17.7512 3.10485 17.5288C2.51318 17.2986 2.01128 16.9908 1.51074 16.4905C1.0102 15.9903 0.70238 15.4884 0.472529 14.8964C0.250103 14.324 0.0978809 13.6698 0.0540033 12.7119C0.0104631 11.7517 0 11.4452 0 9.00083C0 6.55612 0.0104631 6.24964 0.0540033 5.28972C0.0978809 4.33182 0.250103 3.67735 0.472529 3.10491C0.70238 2.51289 1.0102 2.01098 1.51074 1.51077C2.01095 1.01022 2.51284 0.702393 3.10485 0.472537C3.67728 0.250107 4.33174 0.0978827 5.28962 0.0540043ZM12.6378 1.67447C11.6887 1.63093 11.4038 1.62182 9.00066 1.62182C6.59717 1.62182 6.31264 1.63093 5.36354 1.67447C4.48598 1.7143 4.0094 1.86112 3.69214 1.98432C3.27226 2.14768 2.9722 2.34277 2.6573 2.65769C2.34239 2.9726 2.1473 3.27232 1.98394 3.69254C1.86075 4.00982 1.71427 4.48641 1.6741 5.36397C1.63056 6.3131 1.62145 6.59763 1.62145 9.00116C1.62145 11.4047 1.6309 11.6892 1.6741 12.6384C1.71393 13.5159 1.86075 13.9925 1.98394 14.3098C2.1473 14.73 2.34239 15.0297 2.6573 15.3446C2.9722 15.6596 3.27192 15.8546 3.69214 16.018C4.0094 16.1412 4.48598 16.288 5.36354 16.3279C6.31264 16.3714 6.59717 16.3805 9.00066 16.3805C11.4041 16.3805 11.689 16.3711 12.6378 16.3279C13.5153 16.288 13.9919 16.1412 14.3092 16.018C14.7294 15.8546 15.0291 15.6596 15.344 15.3446C15.6589 15.0297 15.854 14.73 16.0174 14.3098C16.1406 13.9925 16.287 13.5159 16.3272 12.6384C16.3708 11.6892 16.3799 11.4047 16.3799 9.00116C16.3799 6.59763 16.3704 6.3131 16.3272 5.36397C16.2874 4.48641 16.1406 4.00982 16.0174 3.69254C15.854 3.27266 15.6589 2.9726 15.344 2.65769C15.0291 2.34277 14.7294 2.14768 14.3092 1.98432C13.9919 1.86112 13.5153 1.71464 12.6378 1.67447ZM5.9991 9.00106C5.9991 10.658 7.34243 12.0013 8.99932 12.0013C10.6562 12.0013 11.9995 10.658 11.9995 9.00106C11.9995 7.34414 10.6562 6.00078 8.99932 6.00078C7.34243 6.00078 5.9991 7.34414 5.9991 9.00106ZM4.37731 9.00106C4.37731 6.44834 6.44665 4.37897 8.99932 4.37897C11.552 4.37897 13.621 6.44834 13.6213 9.00106C13.6213 11.5538 11.552 13.6231 8.99932 13.6231C6.44665 13.6231 4.37731 11.5538 4.37731 9.00106ZM13.8036 5.27645C14.4 5.27645 14.8836 4.79277 14.8836 4.19636C14.8836 3.59996 14.4003 3.11628 13.8036 3.11628C13.2072 3.11628 12.7235 3.59996 12.7235 4.19636C12.7235 4.79277 13.2072 5.27645 13.8036 5.27645Z" fill="black"/>
</svg>
