<svg width="20" height="20" viewBox="0 0 20 20" fill="none" xmlns="http://www.w3.org/2000/svg">
<path fill-rule="evenodd" clip-rule="evenodd" d="M18 8.99775C18 4.01403 13.985 0 9 0C4.01504 0 0 4.01403 0 8.99775C0 12.687 2.20601 15.8487 5.39549 17.2468C5.35038 16.6199 5.37744 15.8487 5.54436 15.1812C5.70226 14.4325 6.70376 10.2696 6.70376 10.2696C6.70376 10.2696 6.41504 9.70584 6.41504 8.8444C6.41504 7.51842 7.18647 6.51716 8.14737 6.51716C8.95489 6.51716 9.35188 7.12152 9.35188 7.87021C9.35188 8.67752 8.83308 9.9088 8.56241 11.0589C8.33233 12.015 9.04511 12.7818 9.97895 12.7818C11.6932 12.7818 12.8346 10.6034 12.8346 8.01904C12.8346 6.03458 11.5263 4.55525 9.10827 4.55525C6.37444 4.55525 4.66917 6.59384 4.66917 8.86695C4.66917 9.66074 4.89925 10.1929 5.25113 10.6349C5.41805 10.8289 5.46316 10.9055 5.4 11.1356C5.35489 11.3024 5.25113 11.6993 5.21504 11.8482C5.14286 12.0782 4.96241 12.1548 4.75038 12.0782C3.50075 11.5775 2.92331 10.1974 2.92331 8.64144C2.9188 6.07968 5.06165 3.0218 9.35188 3.0218C12.7714 3.0218 15.0406 5.52042 15.0406 8.19043C15.0406 11.7038 13.0872 14.3513 10.191 14.3513C9.21654 14.3513 8.29173 13.8326 7.98496 13.2283C7.98496 13.2283 7.46617 15.312 7.36241 15.7043C7.16842 16.3899 6.7985 17.0844 6.43759 17.6211C7.25414 17.8782 8.10677 18 9.00451 18C13.985 17.9955 18 13.9815 18 8.99775Z" fill="black"/>
</svg>
