<svg width="19" height="16" viewBox="0 0 19 16" fill="none" xmlns="http://www.w3.org/2000/svg">
<path d="M18 2.61538C17.3625 2.93846 16.725 3.04615 15.9812 3.15385C16.725 2.72308 17.2563 2.07692 17.4688 1.21538C16.8312 1.64615 16.0875 1.86154 15.2375 2.07692C14.6 1.43077 13.6437 1 12.6875 1C10.8812 1 9.2875 2.61538 9.2875 4.55385C9.2875 4.87692 9.2875 5.09231 9.39375 5.30769C6.525 5.2 3.86875 3.8 2.16875 1.64615C1.85 2.18462 1.74375 2.72308 1.74375 3.47692C1.74375 4.66154 2.38125 5.73846 3.3375 6.38462C2.80625 6.38462 2.275 6.16923 1.74375 5.95385C1.74375 7.67692 2.9125 9.07692 4.50625 9.4C4.1875 9.50769 3.86875 9.50769 3.55 9.50769C3.3375 9.50769 3.125 9.50769 2.9125 9.4C3.3375 10.8 4.6125 11.8769 6.20625 11.8769C5.0375 12.8462 3.55 13.3846 1.85 13.3846C1.53125 13.3846 1.31875 13.3846 1 13.3846C2.59375 14.3538 4.4 15 6.3125 15C12.6875 15 16.1937 9.61538 16.1937 4.98462C16.1937 4.87692 16.1937 4.66154 16.1937 4.55385C16.9375 4.01538 17.575 3.36923 18 2.61538Z" fill="black"/>
</svg>
