<svg width="20" height="20" viewBox="0 0 20 20" fill="none" xmlns="http://www.w3.org/2000/svg">
<path d="M19.75 6.80085C19.5 5.50085 18.75 4.60085 17 4.40085C14.25 4.00085 10 4.00085 10 4.00085C10 4.00085 5.75 4.00085 3 4.40085C1.25 4.60085 0.375 5.50085 0.25 6.80085C0 8.10085 0 10.0009 0 10.0009C0 10.0009 0 11.9009 0.25 13.2009C0.5 14.5009 1.25 15.4009 3 15.6009C5.75 16.0009 10 16.0009 10 16.0009C10 16.0009 14.25 16.0009 17 15.6009C18.75 15.3009 19.5 14.5009 19.75 13.2009C20 11.9009 20 10.0009 20 10.0009C20 10.0009 20 8.10085 19.75 6.80085ZM7.5 13.0009V7.00085L13.75 10.0009L7.5 13.0009Z" fill="black"/>
</svg>
