<svg width="32" height="24" viewBox="0 0 32 24" fill="none" xmlns="http://www.w3.org/2000/svg">
<rect y="2" width="32" height="20.096" rx="4" fill="#2557D6"/>
<path fill-rule="evenodd" clip-rule="evenodd" d="M0.000114816 11.4374H1.53715L1.88372 10.605H2.65961L3.00527 11.4374H6.0295V10.801L6.29944 11.4401H7.8694L8.13934 10.7915V11.4374H15.6551L15.6516 10.071H15.797C15.8988 10.0745 15.9286 10.0839 15.9286 10.2513V11.4374H19.8158V11.1193C20.1293 11.2866 20.617 11.4374 21.2587 11.4374H22.894L23.244 10.605H24.0199L24.3622 11.4374H27.5135V10.6467L27.9908 11.4374H30.5161V6.21045H28.0169V6.82776L27.6669 6.21045H25.1024V6.82776L24.781 6.21045H21.3171C20.7372 6.21045 20.2275 6.29105 19.8158 6.51566V6.21045H17.4253V6.51566C17.1633 6.28415 16.8063 6.21045 16.4093 6.21045H7.67607L7.09009 7.56049L6.48834 6.21045H3.73757V6.82776L3.43539 6.21045H1.08943L0 8.69564V10.6833V11.4374H0.000110933H0.000114816ZM0.977048 10.6833H0L1.61093 6.9356H2.94749L4.47748 10.4839V6.9356H5.94572L7.12301 9.47798L8.2045 6.9356H9.70225V10.6833H8.78015L8.77674 7.74813L7.47231 10.6833H6.68245L5.37461 7.74553V10.6833H3.54493L3.19927 9.8474H1.32623L0.977048 10.6833ZM2.27616 7.57539L2.89188 9.06945H1.66396L2.27616 7.57539ZM13.3725 10.6833H10.3674V6.9356H13.3725V7.71603H11.267V8.39156H13.322V9.15978H11.267V9.90821H13.3725V10.6833ZM16.9737 8.94387C17.2071 8.85118 17.6076 8.54246 17.6076 7.94493C17.6076 7.52691 17.4369 7.28252 17.1524 7.11511C16.8615 6.94769 16.5228 6.9356 16.063 6.9356H13.9939V10.6833H14.8935V9.32018H15.8592C16.183 9.32018 16.3834 9.34878 16.5148 9.48058C16.6619 9.6426 16.6593 9.92092 16.6573 10.1393C16.6571 10.164 16.6568 10.1878 16.6568 10.2107L16.6602 10.6833H17.5676V9.9471C17.5676 9.61239 17.5457 9.44588 17.4187 9.25948C17.3386 9.15028 17.1705 9.01848 16.9737 8.94387ZM16.4703 8.50144C16.3467 8.57616 16.2005 8.57865 16.0253 8.57865H14.9325V7.74622H16.0402C16.197 7.74622 16.3605 7.75323 16.4668 7.81382C16.5835 7.86842 16.6557 7.98462 16.6557 8.14514C16.6557 8.30894 16.587 8.44074 16.4703 8.50144ZM18.1323 10.6833H19.0502V6.9356H18.1323V10.6833ZM29.7058 10.6833H28.431L26.7258 7.87044V10.6833H24.8938L24.5437 9.8474H22.675L22.3353 10.6833H21.2827C20.8454 10.6833 20.2918 10.587 19.9782 10.2688C19.6621 9.9506 19.4976 9.51958 19.4976 8.83806C19.4976 8.28225 19.5959 7.77413 19.9825 7.37261C20.2734 7.07351 20.7288 6.9356 21.3487 6.9356H22.2196V7.73864H21.367C21.0387 7.73864 20.8533 7.78724 20.6748 7.96065C20.5214 8.11845 20.4162 8.41676 20.4162 8.80958C20.4162 9.2111 20.4963 9.50059 20.6635 9.68971C20.802 9.83802 21.0537 9.88301 21.2905 9.88301H21.6945L22.9624 6.93571H24.3103L25.8334 10.4805V6.93571H27.2031L28.7844 9.54581V6.93571H29.7058V10.6833ZM23.6151 7.57539L24.2377 9.06945H22.996L23.6151 7.57539Z" fill="white"/>
<path fill-rule="evenodd" clip-rule="evenodd" d="M30.7774 17.1471C31.3538 17.1471 31.7796 16.9858 31.9981 16.6676V17.642C31.6377 17.8154 31.164 17.8831 30.6789 17.8831H28.348V17.5484C28.0779 17.7642 27.5902 17.8831 27.1237 17.8831H19.775V16.6742C19.775 16.526 19.7603 16.5199 19.6114 16.5199H19.4947V17.8832H17.0757V16.4715C16.6707 16.6458 16.2118 16.6614 15.8226 16.6555H15.5343V17.8859L12.6015 17.8833L11.8804 17.0701L11.1149 17.8833H6.35696V12.6527H11.2062L11.902 13.4533L12.6448 12.6527H15.8911C16.2664 12.6527 16.8821 12.6918 17.159 12.9588V12.6527H20.0596C20.3321 12.6527 20.9227 12.7074 21.2726 12.9588V12.6527H25.6701V12.9588C25.8887 12.7499 26.351 12.6527 26.7448 12.6527H29.2073V12.9588C29.4658 12.7725 29.8307 12.6527 30.3332 12.6527H31.9981L31.998 13.3985H30.2061C29.2621 13.3985 28.9154 13.9709 28.9154 14.5146C28.9154 15.6232 29.8359 15.6481 30.6458 15.6699C30.7025 15.6715 30.7587 15.673 30.8139 15.6748C30.9706 15.6748 31.0656 15.7008 31.1309 15.758C31.197 15.81 31.2407 15.8967 31.2407 16.0059C31.2407 16.1082 31.197 16.1924 31.1344 16.2504C31.0621 16.3207 30.942 16.3432 30.7703 16.3432H29.0401V17.1471H30.7774ZM15.8608 15.9119C16.6471 15.9119 17.4273 15.6969 17.4273 14.6556C17.4273 13.6174 16.6252 13.4206 15.9113 13.4206H13.0368L11.8925 14.6493L10.7858 13.4206H7.1676V17.1692H10.7309L11.8821 15.9283L12.9898 17.1692H14.7383V15.9119H15.8608ZM10.2753 16.3807H8.06354V15.6349H10.0385V14.87H8.06354V14.1885H10.3189L11.3029 15.2809L10.2753 16.3807ZM12.4579 15.283L13.8391 16.8099V13.8046L12.4579 15.283ZM15.8817 15.1431H14.7192V14.1885H15.8921C16.2169 14.1885 16.4424 14.3203 16.4424 14.6481C16.4424 14.9723 16.2274 15.1431 15.8817 15.1431ZM24.9745 13.4206H21.9721V17.1692H24.9745V16.3914L22.868 16.388V15.6422H24.9231V14.8773H22.868V14.1958H24.9745V13.4206ZM20.8178 15.4272C21.018 15.5008 21.1817 15.6327 21.2585 15.7419C21.3855 15.9249 21.4039 16.0957 21.4075 16.4261V17.1692H20.5044V16.7002C20.5044 16.6778 20.5046 16.6543 20.5048 16.63L20.5048 16.6297C20.5068 16.4096 20.5095 16.1234 20.3589 15.9665C20.2275 15.8322 20.0271 15.8001 19.699 15.8001H18.7376V17.1692H17.8336V13.4206H19.9106C20.366 13.4206 20.6977 13.4406 20.9929 13.5975C21.2769 13.7683 21.4554 14.0023 21.4554 14.4299C21.4553 15.0282 21.0546 15.3336 20.8178 15.4272ZM19.8651 15.0304C20.0401 15.0304 20.1889 15.0243 20.3093 14.9532C20.4258 14.883 20.4955 14.7538 20.4955 14.5934C20.4955 14.433 20.4258 14.3169 20.3093 14.2562C20.2004 14.1919 20.0401 14.1885 19.8799 14.1885H18.7722V15.0304H19.8651ZM28.4303 15.192C28.6055 15.3726 28.6994 15.6005 28.6994 15.9863C28.6994 16.7927 28.1934 17.1691 27.2862 17.1691H25.534V16.3653H27.2791C27.4498 16.3653 27.5708 16.3428 27.6466 16.2725C27.7085 16.2145 27.7529 16.1303 27.7529 16.028C27.7529 15.9188 27.7048 15.8321 27.6431 15.7801C27.5743 15.7229 27.4794 15.6969 27.3227 15.6969C27.2676 15.695 27.2116 15.6935 27.1551 15.692C26.348 15.6701 25.4279 15.6452 25.4279 14.5366C25.4279 13.9929 25.7709 13.4206 26.7141 13.4206H28.5175V14.2184H26.8673C26.7037 14.2184 26.5974 14.2245 26.5069 14.2861C26.4083 14.3468 26.3718 14.4369 26.3718 14.5559C26.3718 14.6973 26.4555 14.7935 26.5686 14.8351C26.6635 14.868 26.7655 14.8776 26.9187 14.8776L27.403 14.8906C27.8913 14.9024 28.2266 14.9865 28.4303 15.192ZM30.3604 14.1885H32V15.2552C31.9961 15.2502 31.9922 15.2452 31.9884 15.2402C31.9677 15.2131 31.9473 15.1865 31.9165 15.1624C31.7163 14.957 31.3879 14.8727 30.8959 14.8606L30.4083 14.8476C30.2585 14.8476 30.1566 14.838 30.0617 14.8051C29.9451 14.7635 29.8649 14.6673 29.8649 14.5259C29.8649 14.407 29.9015 14.3169 29.9964 14.2562C30.088 14.1946 30.1967 14.1885 30.3604 14.1885Z" fill="white"/>
</svg>
