<svg width="40" height="16" viewBox="0 0 40 16" fill="none" xmlns="http://www.w3.org/2000/svg">
<path fill-rule="evenodd" clip-rule="evenodd" d="M7.18903 2.0628C6.7279 2.60324 5.99011 3.0295 5.25231 2.9686C5.16008 2.23787 5.5213 1.46147 5.94399 0.981923C6.40512 0.426261 7.21208 0.0304472 7.86534 0C7.9422 0.761181 7.64247 1.50714 7.18903 2.0628ZM7.85765 3.11308C7.20766 3.07603 6.61458 3.30668 6.13553 3.49299C5.82725 3.61288 5.56619 3.71441 5.36758 3.71441C5.14471 3.71441 4.87287 3.60746 4.56766 3.48737C4.16774 3.33001 3.71052 3.15012 3.23104 3.15875C2.13203 3.17397 1.10987 3.79053 0.548841 4.77245C-0.603969 6.7363 0.24911 9.64401 1.36349 11.2425C1.90916 12.0341 2.56241 12.9019 3.42318 12.8714C3.80186 12.8573 4.07427 12.7428 4.35618 12.6243C4.68074 12.4879 5.0179 12.3462 5.54435 12.3462C6.05255 12.3462 6.37496 12.4842 6.68446 12.6167C6.97875 12.7426 7.26135 12.8636 7.68089 12.8562C8.57239 12.841 9.13343 12.0646 9.67909 11.2729C10.2679 10.4233 10.5267 9.59415 10.566 9.46828L10.566 9.46827L10.5706 9.45371C10.5697 9.45278 10.5624 9.44948 10.5495 9.44366C10.3527 9.35441 8.84813 8.67221 8.8337 6.84286C8.81921 5.30739 10.0271 4.52943 10.2172 4.40696C10.2288 4.39951 10.2366 4.39448 10.2401 4.39186C9.47159 3.26532 8.27267 3.14353 7.85765 3.11308ZM14.029 12.7726V0.905769H18.525C20.846 0.905769 22.4676 2.48903 22.4676 4.80301C22.4676 7.117 20.8152 8.71548 18.4635 8.71548H15.8889V12.7726H14.029ZM15.8889 2.45873H18.0331C19.6471 2.45873 20.5693 3.31125 20.5693 4.81078C20.5693 6.31031 19.6471 7.17044 18.0254 7.17044H15.8889V2.45873ZM28.6082 11.349C28.1163 12.2777 27.0327 12.8638 25.8645 12.8638C24.1353 12.8638 22.9287 11.8438 22.9287 10.3062C22.9287 8.78386 24.0969 7.9085 26.2565 7.7791L28.5775 7.64208V6.98747C28.5775 6.02077 27.9396 5.49556 26.8021 5.49556C25.8645 5.49556 25.1805 5.9751 25.0422 6.70583H23.3668C23.4206 5.16825 24.8808 4.04931 26.8559 4.04931C28.9848 4.04931 30.3682 5.15302 30.3682 6.86568V12.7724H28.6466V11.349H28.6082ZM26.3641 11.4559C25.3727 11.4559 24.7425 10.9839 24.7425 10.2608C24.7425 9.51485 25.3496 9.08098 26.5101 9.01247L28.5775 8.88307V9.55291C28.5775 10.6642 27.6245 11.4559 26.3641 11.4559ZM36.0784 13.2369C35.3329 15.3149 34.4799 15.9999 32.6661 15.9999C32.5278 15.9999 32.0667 15.9847 31.9591 15.9543V14.5309C32.0743 14.5461 32.3587 14.5613 32.5047 14.5613C33.3271 14.5613 33.7882 14.2188 34.0725 13.3282L34.2416 12.803L31.0906 4.16358H33.035L35.2254 11.1741H35.2638L37.4541 4.16358H39.3447L36.0784 13.2369Z" fill="black"/>
</svg>
