<svg width="31" height="22" viewBox="0 0 31 22" fill="none" xmlns="http://www.w3.org/2000/svg">
<rect width="31" height="22" rx="2" fill="#CCCCCC"/>
<rect x="6.5" y="3.48059" width="21.2778" height="9.98094" rx="1.5" fill="white" stroke="#D7373D"/>
<ellipse cx="15.5" cy="8.49655" rx="1.5" ry="1.49032" fill="black"/>
<ellipse cx="11.5" cy="8.49655" rx="1.5" ry="1.49032" fill="black"/>
<ellipse cx="19.5" cy="8.49655" rx="1.5" ry="1.49032" fill="black"/>
<ellipse cx="23.5" cy="8.49655" rx="1.5" ry="1.49032" fill="black"/>
<path d="M5.196 19.8967H5.868L4.796 18.4047L5.856 16.8967H5.2L4.468 17.9527L3.708 16.8967H3.008L4.088 18.3767L3.012 19.8967H3.672L4.416 18.8287L5.196 19.8967ZM8.071 19.8967H8.743L7.671 18.4047L8.731 16.8967H8.075L7.343 17.9527L6.583 16.8967H5.883L6.963 18.3767L5.887 19.8967H6.547L7.291 18.8287L8.071 19.8967ZM10.946 19.8967H11.618L10.546 18.4047L11.606 16.8967H10.95L10.218 17.9527L9.458 16.8967H8.758L9.838 18.3767L8.762 19.8967H9.422L10.166 18.8287L10.946 19.8967ZM13.821 19.8967H14.493L13.421 18.4047L14.481 16.8967H13.825L13.093 17.9527L12.333 16.8967H11.633L12.713 18.3767L11.637 19.8967H12.297L13.041 18.8287L13.821 19.8967ZM19.403 19.8967H20.075L19.003 18.4047L20.063 16.8967H19.407L18.675 17.9527L17.915 16.8967H17.215L18.295 18.3767L17.219 19.8967H17.879L18.623 18.8287L19.403 19.8967ZM22.278 19.8967H22.95L21.878 18.4047L22.938 16.8967H22.282L21.55 17.9527L20.79 16.8967H20.09L21.17 18.3767L20.094 19.8967H20.754L21.498 18.8287L22.278 19.8967ZM25.153 19.8967H25.825L24.753 18.4047L25.813 16.8967H25.157L24.425 17.9527L23.665 16.8967H22.965L24.045 18.3767L22.969 19.8967H23.629L24.373 18.8287L25.153 19.8967ZM28.028 19.8967H28.7L27.628 18.4047L28.688 16.8967H28.032L27.3 17.9527L26.54 16.8967H25.84L26.92 18.3767L25.844 19.8967H26.504L27.248 18.8287L28.028 19.8967Z" fill="white"/>
</svg>
