<svg width="31" height="22" viewBox="0 0 31 22" fill="none" xmlns="http://www.w3.org/2000/svg">
<path fill-rule="evenodd" clip-rule="evenodd" d="M0 2C0 0.89543 0.89543 0 2 0H29C30.1046 0 31 0.895431 31 2V5.5H0V2ZM0 8.8H31V20C31 21.1046 30.1046 22 29 22H2C0.89543 22 0 21.1046 0 20V8.8ZM4.32143 13.2C3.76914 13.2 3.32143 13.6477 3.32143 14.2V17.7C3.32143 18.2523 3.76914 18.7 4.32143 18.7H7.85714C8.40943 18.7 8.85714 18.2523 8.85714 17.7V14.2C8.85714 13.6477 8.40943 13.2 7.85714 13.2H4.32143Z" fill="#C4C4C4"/>
</svg>
