<svg width="32" height="24" viewBox="0 0 32 24" fill="none" xmlns="http://www.w3.org/2000/svg">
<path d="M2.25609 2C1.01032 2 0 2.98793 0 4.2063V19.8897C0 21.1083 1.01 22.096 2.25609 22.096H29.7439C30.9897 22.096 32 21.1081 32 19.8897V12.7723V4.2063C32 2.9877 30.99 2 29.7439 2H2.25609Z" fill="#4D4D4D"/>
<path fill-rule="evenodd" clip-rule="evenodd" d="M13.4217 8.4939C13.7842 8.4939 14.0882 8.56782 14.4583 8.74613V9.68851C14.1078 9.36281 13.8037 9.22651 13.4016 9.22651C12.6113 9.22651 11.9898 9.8484 11.9898 10.6369C11.9898 11.4683 12.5921 12.0532 13.4408 12.0532C13.8229 12.0532 14.1213 11.924 14.4583 11.6035V12.5464C14.0751 12.7179 13.7645 12.7856 13.4016 12.7856C12.1184 12.7856 11.1213 11.8497 11.1213 10.6427C11.1213 9.44872 12.145 8.4939 13.4217 8.4939ZM9.43751 8.52001C9.91118 8.52001 10.3446 8.67411 10.707 8.97538L10.266 9.52411C10.0465 9.29026 9.83892 9.19162 9.58647 9.19162C9.22326 9.19162 8.95875 9.38815 8.95875 9.64675C8.95875 9.86854 9.10725 9.98592 9.61291 10.1638C10.5715 10.4969 10.8555 10.7923 10.8555 11.4447C10.8555 12.2397 10.2412 12.793 9.36548 12.793C8.72425 12.793 8.25807 12.553 7.86981 12.0114L8.41412 11.5131C8.60821 11.8697 8.93196 12.0607 9.33391 12.0607C9.70984 12.0607 9.98816 11.8142 9.98816 11.4815C9.98816 11.3091 9.90385 11.1612 9.73551 11.0566C9.65075 11.0071 9.48287 10.9333 9.15298 10.8228C8.36153 10.5519 8.09 10.2625 8.09 9.69674C8.09 9.02471 8.67312 8.52001 9.43751 8.52001ZM19.9877 8.59145H19.0672L20.9005 12.8032H21.354L23.2204 8.59145H22.3068L21.1398 11.3497L19.9877 8.59145ZM2.76573 8.59793H4.00267C5.3693 8.59793 6.32198 9.44212 6.32198 10.654C6.32198 11.2583 6.03053 11.8426 5.53769 12.2303C5.12297 12.5576 4.65045 12.7044 3.99618 12.7044H2.76573V8.59793ZM7.55242 8.59793H6.70971V12.7044H7.55242V8.59793ZM23.6014 8.59793H25.9912V9.29373H24.4434V10.2052H25.9342V10.9007H24.4434V12.0091H25.9912V12.7044H23.6014V8.59793ZM27.7988 8.59793H26.5494V12.7044H27.391V11.0547H27.5009L28.6672 12.7044H29.7035L28.3436 10.9745C28.9784 10.8517 29.3277 10.4391 29.3277 9.81034C29.3277 9.04154 28.7707 8.59793 27.7988 8.59793ZM27.391 9.24461V10.4882H27.6373C28.1754 10.4882 28.4606 10.2662 28.4606 9.85336C28.4606 9.45373 28.1753 9.24461 27.6506 9.24461H27.391ZM3.60778 12.009V9.29359H3.8339C4.37844 9.29359 4.70877 9.38628 4.98711 9.62568C5.27855 9.87237 5.45385 10.2545 5.45385 10.648C5.45385 11.0421 5.27855 11.436 4.98711 11.6827C4.72234 11.9098 4.37844 12.009 3.8339 12.009H3.60778Z" fill="white"/>
<path fill-rule="evenodd" clip-rule="evenodd" d="M19.3293 10.5808C19.3293 9.41239 18.3004 8.46655 17.031 8.46655C15.7617 8.46655 14.7327 9.41239 14.7327 10.5808V10.5821C14.7327 11.7506 15.7617 12.6977 17.031 12.6977C18.3004 12.6977 19.3293 11.7506 19.3293 10.5821V10.5808ZM9.07605 22.0952C22.9295 19.5568 30.9306 14.3018 31.9993 13.5665V19.8889C31.9993 21.1073 30.989 22.0952 29.7432 22.0952H9.07605Z" fill="#F47216"/>
</svg>
