<svg width="27" height="16" viewBox="0 0 27 16" fill="none" xmlns="http://www.w3.org/2000/svg">
<rect width="26.9474" height="16" rx="2" fill="#FFB3C7"/>
<path fill-rule="evenodd" clip-rule="evenodd" d="M2.18717 10.4085H3.36187V5.24207H2.18717V10.4085ZM8.16976 10.4071H7.06039V5.24307H8.16976V10.4071ZM12.5829 6.83488H11.5229V7.06339C11.2235 6.85727 10.8621 6.73614 10.4723 6.73614C9.44063 6.73614 8.60429 7.57997 8.60429 8.62101C8.60429 9.66204 9.44063 10.5059 10.4723 10.5059C10.8621 10.5059 11.2235 10.3848 11.5229 10.1787V10.407H12.5829V6.83488ZM22.7046 6.83488H23.7644V10.407H22.7046V10.1787C22.4051 10.3848 22.0437 10.5059 21.6538 10.5059C20.6222 10.5059 19.7859 9.66204 19.7859 8.62101C19.7859 7.57997 20.6222 6.73614 21.6538 6.73614C22.0437 6.73614 22.4051 6.85727 22.7046 7.06339V6.83488ZM21.7406 7.70209C22.271 7.70209 22.701 8.11347 22.701 8.62106C22.701 9.12865 22.2711 9.54015 21.7406 9.54015C21.2102 9.54015 20.7802 9.12865 20.7802 8.62106C20.7802 8.11349 21.2103 7.70209 21.7406 7.70209ZM24.2245 9.8112C24.2245 9.44044 24.5223 9.13991 24.8897 9.13991C25.2571 9.13991 25.555 9.44041 25.555 9.8112C25.555 10.1819 25.2571 10.4825 24.8897 10.4825C24.5223 10.4825 24.2245 10.1819 24.2245 9.8112ZM14.2225 6.83481V7.30006L14.2225 7.30013C14.435 7.02106 14.8309 6.83509 15.2613 6.83509V7.8745L15.2548 7.87424L15.2487 7.87403C14.8294 7.87403 14.225 8.17646 14.225 8.73914V10.4069H13.1374V6.83481H14.2225ZM11.5194 8.62106C11.5194 8.11347 11.0894 7.70209 10.559 7.70209C10.0286 7.70209 9.59862 8.11349 9.59862 8.62106C9.59862 9.12865 10.0286 9.54015 10.559 9.54015C11.0895 9.54015 11.5194 9.12865 11.5194 8.62106ZM17.9025 6.73876C17.4791 6.73876 17.0784 6.8714 16.8105 7.23734V6.83505H15.7552V10.407H16.8235V8.52983C16.8235 7.98662 17.1845 7.72063 17.6192 7.72063C18.085 7.72063 18.3528 8.00143 18.3528 8.52246V10.407H19.4114V8.13543C19.4114 7.30414 18.7564 6.73882 17.9025 6.73882V6.73876ZM5.09422 8.1744C5.86392 7.40102 6.29588 6.36055 6.29588 5.24208L6.29588 5.24207H5.14633C5.14633 6.1928 4.71312 7.06544 3.95784 7.63634L3.50241 7.98051L5.26708 10.4087H6.71798L5.09422 8.1744Z" fill="#0A0B09"/>
</svg>
