<svg width="32" height="24" viewBox="0 0 32 24" fill="none" xmlns="http://www.w3.org/2000/svg">
<rect y="1" width="32" height="21" rx="4" fill="black"/>
<path fill-rule="evenodd" clip-rule="evenodd" d="M25.3043 18.1431V16.6233H24.9685V17.5069C24.8448 17.3478 24.6699 17.2595 24.4207 17.2595C23.9437 17.2595 23.59 17.6307 23.59 18.1431C23.59 18.6555 23.9433 19.0267 24.4207 19.0267C24.6682 19.0267 24.8448 18.9384 24.9685 18.7792V18.9926H25.3043V18.1431ZM14.3296 17.3125H14.9483L14.9478 17.3146V17.5975H14.3292V18.4098C14.3292 18.5865 14.4175 18.6927 14.5941 18.6927C14.7065 18.6947 14.8171 18.664 14.9124 18.6044L15.0187 18.9031C14.8781 18.981 14.7207 19.0235 14.56 19.0268C14.1359 19.0268 13.9947 18.7968 13.9947 18.4081V17.6111H13.6414V17.3125H13.9947V16.8005H14.3296V17.3125ZM9.43488 17.931V18.9913H9.06453V18.0193C9.06453 17.7369 8.9233 17.5777 8.67584 17.5777C8.42837 17.5777 8.25173 17.7207 8.25173 18.0193V18.9913H7.91594V18.0193C7.91594 17.7369 7.77472 17.5777 7.52725 17.5777C7.27978 17.5777 7.10314 17.7207 7.10314 18.0193V18.99H6.76736V17.2936H7.10314V17.5069C7.22144 17.3437 7.41375 17.2507 7.61514 17.2594C7.88181 17.2594 8.05674 17.3635 8.18048 17.5581C8.33962 17.3303 8.56789 17.2594 8.78122 17.2594C9.18741 17.2594 9.43488 17.5244 9.43488 17.931ZM18.0937 17.2596C17.9076 17.2555 17.7331 17.3495 17.6341 17.5071V17.2938H17.2983V18.9902H17.6341V18.0375C17.6341 17.7546 17.7754 17.5779 18.0053 17.5779C18.0829 17.5811 18.1599 17.593 18.2349 17.6133L18.3411 17.2951C18.2601 17.2746 18.1772 17.2628 18.0937 17.2596ZM12.6511 17.2596C12.9161 17.2596 13.1635 17.3125 13.3402 17.4363L13.1665 17.7029C13.0603 17.65 12.8495 17.5617 12.6362 17.5617C12.4416 17.5617 12.3004 17.6513 12.3004 17.775C12.3004 17.8809 12.4399 17.9342 12.599 17.9517L12.7757 17.9692C13.1456 18.0225 13.3589 18.1654 13.3589 18.4641C13.3589 18.7824 13.094 19.012 12.599 19.012C12.4215 19.012 12.1212 18.9753 11.8737 18.7986L12.0503 18.5337C12.2146 18.6525 12.413 18.7145 12.6157 18.7103C12.8811 18.7103 13.0223 18.6207 13.0223 18.497C13.0223 18.4086 12.8986 18.3378 12.704 18.3024L12.5274 18.2849C12.1566 18.2316 11.962 18.0729 11.962 17.79C11.962 17.4542 12.227 17.2596 12.6511 17.2596ZM18.4649 18.1442C18.4653 18.6556 18.801 19.0267 19.3485 19.0267C19.5959 19.0267 19.7726 18.9738 19.9492 18.8321L19.7726 18.5672C19.6475 18.6685 19.4919 18.7245 19.331 18.7263C19.0323 18.7263 18.8006 18.4968 18.8006 18.161C18.8006 17.8252 19.0293 17.5974 19.331 17.5974C19.4919 17.5992 19.6475 17.6552 19.7726 17.7565L19.9492 17.4916C19.7726 17.3503 19.5959 17.297 19.3485 17.297C18.8185 17.2616 18.4653 17.6323 18.4649 18.1442ZM15.2661 18.1433C15.2661 17.6129 15.6019 17.2596 16.0968 17.2596V17.2601C16.5739 17.2601 16.8922 17.6133 16.8922 18.1437V18.2849H15.6373C15.6723 18.5853 15.9198 18.7265 16.1493 18.7265C16.3289 18.7218 16.5023 18.6599 16.6443 18.5499L16.8209 18.7973C16.6246 18.9511 16.3811 19.0322 16.1318 19.0269C15.6194 19.0269 15.2661 18.6736 15.2661 18.1433ZM16.0794 17.5778C16.3268 17.5778 16.5035 17.7369 16.521 18.0019H15.6023C15.6553 17.7544 15.8157 17.5778 16.0794 17.5778ZM11.5025 17.2946V18.1429V18.9936H11.1667V18.7803C11.043 18.9394 10.8663 19.0278 10.6189 19.0278C10.1414 19.0278 9.78816 18.6566 9.78816 18.1441C9.78816 17.6317 10.1419 17.2605 10.6189 17.2605C10.8681 17.2605 11.043 17.3488 11.1667 17.508V17.2946H11.5025ZM10.1419 18.1431C10.1419 17.8248 10.3364 17.5778 10.6722 17.5778C10.9905 17.5778 11.1842 17.8253 11.1842 18.1431C11.1842 18.4789 10.9709 18.7085 10.6722 18.7085C10.3364 18.726 10.1419 18.461 10.1419 18.1431ZM22.7418 17.5071C22.8407 17.3495 23.0152 17.2555 23.2013 17.2596H23.2009C23.2844 17.2628 23.3673 17.2746 23.4483 17.2951L23.3421 17.6133C23.2671 17.593 23.1901 17.5811 23.1125 17.5779C22.8826 17.5779 22.7413 17.7546 22.7413 18.0375V18.9902H22.406V17.2938H22.7418V17.5071ZM21.8935 18.1429V17.2946H21.5578V17.508C21.434 17.3488 21.2591 17.2605 21.0099 17.2605C20.5329 17.2605 20.1792 17.6317 20.1792 18.1441C20.1792 18.6566 20.5325 19.0278 21.0099 19.0278C21.2574 19.0278 21.434 18.9394 21.5578 18.7803V18.9936H21.8935V18.1429ZM21.0633 17.5778C20.7275 17.5778 20.5329 17.8248 20.5329 18.1431C20.5329 18.461 20.7275 18.726 21.0633 18.7085C21.3619 18.7085 21.5753 18.4789 21.5753 18.1431C21.5753 17.8253 21.3816 17.5778 21.0633 17.5778ZM24.474 17.5778C24.1382 17.5778 23.9437 17.8248 23.9437 18.1431H23.9432C23.9432 18.4614 24.1378 18.7264 24.474 18.7085C24.7727 18.7085 24.986 18.4789 24.986 18.1431C24.986 17.8253 24.7923 17.5778 24.474 17.5778Z" fill="white"/>
<rect x="12.9515" y="4.43005" width="6.13205" height="10.0019" fill="#FF5F00"/>
<path d="M13.5701 9.43104C13.5706 7.4817 14.4623 5.63957 15.991 4.43008C13.3829 2.37946 9.63678 2.67753 7.38575 5.11479C5.13472 7.55205 5.13472 11.31 7.38575 13.7473C9.63678 16.1845 13.3829 16.4826 15.991 14.432C14.4623 13.2225 13.5706 11.3804 13.5701 9.43104Z" fill="#EB001B"/>
<path d="M26.2938 9.43115C26.2955 11.8651 24.907 14.0863 22.7181 15.1509C20.5293 16.2154 17.9247 15.9363 16.0111 14.4321C17.5402 13.2229 18.4321 11.3806 18.4321 9.43115C18.4321 7.4817 17.5402 5.63939 16.0111 4.43019C17.9247 2.926 20.5293 2.64687 22.7181 3.71141C24.907 4.77596 26.2955 6.99716 26.2938 9.43115Z" fill="#F79E1B"/>
</svg>
