<svg width="64" height="16" viewBox="0 0 64 16" fill="none" xmlns="http://www.w3.org/2000/svg">
<path fill-rule="evenodd" clip-rule="evenodd" d="M23.7512 3.36646H20.2361C19.9957 3.36631 19.7909 3.53602 19.7535 3.76648L18.3318 12.5136C18.3186 12.5957 18.3431 12.6794 18.3988 12.7425C18.4546 12.8056 18.536 12.8419 18.6217 12.8418H20.2998C20.5404 12.8419 20.7452 12.6719 20.7824 12.4413L21.1659 10.082C21.2031 9.85156 21.4076 9.68165 21.648 9.68151H22.7607C25.0762 9.68151 26.4125 8.59417 26.7615 6.43944C26.9188 5.49674 26.7682 4.75606 26.3133 4.23733C25.8137 3.66772 24.9276 3.36646 23.7512 3.36646ZM24.1567 6.56106C23.9645 7.78506 23.0008 7.78506 22.0689 7.78506H21.5385L21.9106 5.49915C21.9331 5.36099 22.0558 5.25924 22.2 5.25924H22.4431C23.0779 5.25924 23.6766 5.25924 23.986 5.61038C24.1706 5.81987 24.2271 6.13111 24.1567 6.56106ZM32.575 6.52205H34.2583C34.3438 6.52202 34.4251 6.55839 34.4805 6.62155C34.536 6.6847 34.5602 6.7683 34.5466 6.85024L33.6369 12.4411C33.5997 12.6717 33.3949 12.8417 33.1543 12.8416H31.6381C31.5524 12.8415 31.471 12.8049 31.4155 12.7416C31.3599 12.6783 31.3357 12.5945 31.3492 12.5124L31.4243 12.0585C31.4243 12.0585 30.5932 12.9937 29.0944 12.9937C28.2212 12.9937 27.4872 12.7493 26.9743 12.1627C26.4151 11.5248 26.1864 10.61 26.3472 9.65339C26.6566 7.73558 28.2453 6.36842 30.1054 6.36842C30.9165 6.36842 31.729 6.54 32.0934 7.05325L32.2112 7.21884L32.2857 6.76196C32.3082 6.6238 32.4309 6.52205 32.575 6.52205ZM31.912 9.7005C31.7496 10.6337 30.9863 11.2602 30.0129 11.2602C29.5241 11.2602 29.1335 11.1081 28.8827 10.8198C28.6339 10.5335 28.5393 10.126 28.6185 9.67207C28.7701 8.74683 29.5462 8.09991 30.5048 8.09991C30.9828 8.09991 31.3713 8.25404 31.6273 8.54483C31.8837 8.83861 31.9855 9.2486 31.912 9.7005ZM41.5315 6.5215H43.223C43.332 6.52155 43.432 6.58032 43.4825 6.67406C43.533 6.7678 43.5257 6.881 43.4635 6.96791L37.8376 14.8486C37.7463 14.9763 37.5963 15.0523 37.4362 15.0521H35.7468C35.6371 15.0522 35.5367 14.9928 35.4864 14.8983C35.436 14.8038 35.4443 14.69 35.5078 14.6032L37.2594 12.2036L35.3962 6.89758C35.3657 6.81063 35.3803 6.7147 35.4355 6.64006C35.4907 6.56542 35.5796 6.52125 35.6743 6.5215H37.3365C37.5525 6.5216 37.7429 6.65898 37.8052 6.85967L38.7941 10.0643L41.127 6.72949C41.2182 6.59959 41.3696 6.52175 41.5315 6.5215Z" fill="#253B80"/>
<path fill-rule="evenodd" clip-rule="evenodd" d="M59.8716 12.5131L61.3143 3.60589C61.3368 3.46783 61.4591 3.36597 61.6032 3.36548H63.2273C63.3129 3.36563 63.3942 3.4021 63.4497 3.4653C63.5053 3.52851 63.5295 3.61212 63.5162 3.69417L62.0935 12.4408C62.0565 12.6717 61.8519 12.8413 61.6109 12.8413H60.1604C60.0749 12.8413 59.9936 12.8049 59.9381 12.7418C59.8825 12.6787 59.8582 12.5951 59.8716 12.5131ZM48.8232 3.36606H45.3077C45.0674 3.36616 44.863 3.53581 44.8256 3.76608L43.4039 12.5132C43.3905 12.5952 43.4148 12.6788 43.4704 12.7419C43.526 12.805 43.6072 12.8414 43.6928 12.8414H45.4968C45.6649 12.8411 45.8079 12.7223 45.834 12.5611L46.2374 10.0816C46.2746 9.85116 46.4792 9.68125 46.7196 9.68112H47.8318C50.1477 9.68112 51.4836 8.59378 51.8331 6.43905C51.9909 5.49635 51.8392 4.75566 51.3844 4.23693C50.8853 3.66733 49.9997 3.36606 48.8232 3.36606ZM49.2288 6.56099C49.037 7.785 48.0733 7.785 47.141 7.785H46.6111L46.9837 5.49909C47.0058 5.36089 47.1285 5.259 47.2726 5.25917H47.5157C48.1499 5.25917 48.7492 5.25917 49.0586 5.61031C49.2431 5.8198 49.2992 6.13104 49.2288 6.56099ZM57.6476 6.52148H59.3299C59.4156 6.52138 59.497 6.55764 59.5529 6.62074C59.6087 6.68384 59.6333 6.76748 59.6203 6.84968L58.71 12.4405C58.6728 12.671 58.4683 12.8409 58.2279 12.841H56.7122C56.6263 12.8412 56.5447 12.8048 56.4889 12.7414C56.4331 12.6781 56.4088 12.5941 56.4223 12.5118L56.4974 12.0579C56.4974 12.0579 55.6663 12.9931 54.1675 12.9931C53.2943 12.9931 52.5614 12.7487 52.0474 12.1622C51.4882 11.5242 51.2605 10.6095 51.4209 9.65282C51.7303 7.73501 53.3184 6.36785 55.1785 6.36785C55.9896 6.36785 56.8016 6.53943 57.166 7.05268L57.2843 7.21827L57.3588 6.76139C57.3807 6.62309 57.5035 6.52109 57.6476 6.52148ZM56.9836 9.70043C56.8222 10.6336 56.0579 11.2601 55.0845 11.2601C54.5967 11.2601 54.205 11.108 53.9542 10.8197C53.7055 10.5334 53.6119 10.1259 53.69 9.672C53.8427 8.74676 54.6178 8.09985 55.5763 8.09985C56.0543 8.09985 56.4429 8.25397 56.6988 8.54476C56.9563 8.83854 57.0581 9.24854 56.9836 9.70043Z" fill="#179BD7"/>
<path d="M3.73448 14.5417L4.00329 12.8847L3.40451 12.8713H0.54528L2.5323 0.644662C2.54453 0.567448 2.61319 0.510577 2.69369 0.510989H7.51475C9.11526 0.510989 10.2198 0.834198 10.7965 1.47214C11.0668 1.77141 11.239 2.08414 11.3223 2.4283C11.4096 2.78941 11.4112 3.22086 11.3259 3.74707L11.3197 3.78548V4.12265L11.59 4.27129C11.7964 4.37276 11.9819 4.51002 12.1374 4.6763C12.3687 4.93217 12.5183 5.25738 12.5815 5.64293C12.6468 6.03946 12.6252 6.51131 12.5183 7.0455C12.3949 7.66 12.1955 8.19519 11.9262 8.63312C11.6885 9.02543 11.3691 9.36522 10.9882 9.63068C10.6305 9.87708 10.2054 10.0641 9.72483 10.1838C9.25917 10.3015 8.72824 10.3609 8.14591 10.3609H7.77071C7.50241 10.3609 7.24183 10.4547 7.03727 10.6228C6.833 10.7926 6.69749 11.0274 6.65487 11.2851L6.6266 11.4343L6.15169 14.3546L6.13011 14.4619C6.12445 14.4958 6.11469 14.5127 6.1003 14.5242C6.08636 14.5353 6.06896 14.5414 6.05096 14.5417H3.73448Z" fill="#253B80"/>
<path d="M11.846 3.82422C11.8316 3.9135 11.8152 4.00478 11.7967 4.09855C11.1609 7.2663 8.98574 8.36062 6.20772 8.36062H4.79327C4.45353 8.36062 4.16725 8.60004 4.11431 8.92524L3.39012 13.3823L3.18505 14.6457C3.16852 14.7472 3.19856 14.8505 3.26726 14.9286C3.33597 15.0067 3.43645 15.0517 3.54226 15.0518H6.05096C6.34804 15.0518 6.6004 14.8423 6.64717 14.558L6.67184 14.4343L7.14418 11.5254L7.1745 11.3658C7.22076 11.0805 7.47364 10.871 7.77071 10.871H8.14591C10.5765 10.871 12.4792 9.91332 13.0353 7.1421C13.2676 5.98443 13.1474 5.0178 12.5327 4.33796C12.3378 4.12766 12.1051 3.95357 11.846 3.82422V3.82422Z" fill="#179BD7"/>
<path d="M11.1809 3.56685C10.9779 3.50986 10.7714 3.46538 10.5626 3.43368C10.15 3.37215 9.7331 3.34263 9.31571 3.34539H5.53698C5.23984 3.34517 4.98692 3.55525 4.94129 3.84018L4.13743 8.7811L4.1143 8.92524C4.16605 8.60024 4.45438 8.36046 4.79326 8.36062H6.20771C8.98574 8.36062 11.1609 7.2658 11.7967 4.09855C11.8157 4.00478 11.8316 3.9135 11.846 3.82422C11.6782 3.73884 11.5034 3.66727 11.3233 3.61024C11.2761 3.59504 11.2286 3.58058 11.1809 3.56685Z" fill="#222D65"/>
<path d="M4.94129 3.84011C4.98654 3.55504 5.23977 3.34492 5.53698 3.34582H9.31571C9.76338 3.34582 10.1812 3.37425 10.5626 3.4341C10.8207 3.47346 11.0752 3.53233 11.3238 3.61017C11.5114 3.67052 11.6856 3.74185 11.8465 3.82415C12.0357 2.65351 11.845 1.85646 11.1927 1.13472C10.4737 0.340168 9.17591 0 7.51526 0H2.6942C2.35498 0 2.06561 0.239414 2.01319 0.565118L0.00509629 12.9174C-0.0138325 13.0335 0.0205101 13.1517 0.0990902 13.2411C0.17767 13.3305 0.292621 13.3821 0.413705 13.3823H3.39012L4.13744 8.78102L4.94129 3.84011Z" fill="#253B80"/>
</svg>
