<svg width="32" height="24" viewBox="0 0 32 24" fill="none" xmlns="http://www.w3.org/2000/svg">
<rect y="2" width="32" height="20" rx="4" fill="#0E4595"/>
<path d="M11.4 16L12.8234 8H15.1L13.6756 16H11.4Z" fill="white"/>
<path d="M22 8.32551C21.551 8.1685 20.8475 8 19.9689 8C17.7297 8 16.1523 9.05117 16.1389 10.5577C16.1263 11.6713 17.265 12.2926 18.1246 12.6633C19.0067 13.0432 19.3032 13.2855 19.299 13.6247C19.2934 14.1442 18.5946 14.3815 17.9432 14.3815C17.0362 14.3815 16.5543 14.2641 15.8101 13.9747L15.5181 13.8515L15.2 15.5865C15.7293 15.8028 16.7081 15.9903 17.7244 16C20.1065 16 21.653 14.9609 21.6706 13.3521C21.6791 12.4705 21.0753 11.7995 19.7679 11.2464C18.9758 10.8878 18.4907 10.6486 18.4958 10.2856C18.4958 9.96341 18.9064 9.61893 19.7936 9.61893C20.5347 9.6082 21.0715 9.75884 21.4897 9.91586L21.6928 10.0053L22 8.32551Z" fill="white"/>
<path fill-rule="evenodd" clip-rule="evenodd" d="M26.0733 7.90784H27.8325L29.6751 16.255H27.5626C27.5626 16.255 27.3537 15.2958 27.2856 15.0034C27.1097 15.0034 26.3748 15.0024 25.6839 15.0015C25.071 15.0006 24.4928 14.9998 24.37 14.9998C24.2816 15.2258 23.8907 16.255 23.8907 16.255H21.5L24.8811 8.60049C25.1205 8.05657 25.5283 7.90784 26.0733 7.90784ZM25.0414 13.3012C25.0413 13.3012 25.0413 13.3012 25.0413 13.3012V13.3012H25.0414ZM25.0414 13.3012H26.9312C26.8401 12.8831 26.4042 10.8893 26.4042 10.8893L26.2503 10.1692C26.19 10.3334 26.1064 10.5504 26.0424 10.7166C25.9841 10.8677 25.942 10.9769 25.9484 10.9664C25.9484 10.9664 25.2297 12.8199 25.0414 13.3012Z" fill="white"/>
<path d="M2.02791 8L2 8.16676C2.86358 8.37574 3.63492 8.67813 4.31023 9.05437L6.24882 16L8.56041 15.9973L12 8H9.68569L7.54669 13.4641L7.31877 12.3537C7.30823 12.3198 7.29681 12.2858 7.2851 12.2518L6.54128 8.67648C6.40903 8.1691 6.02543 8.01768 5.55091 8H2.02791Z" fill="white"/>
</svg>
